<svg xmlns="http://www.w3.org/2000/svg" width="800" height="711" viewBox="0 0 800 711" stroke-linecap="round" stroke-linejoin="round">
<path d="M 369.7389 701.4563 370.1077 693.9903 371.5393 691.8242 373.7372 691.6052 376.2692 692.1237 378.1688 692.1777 378.1688 693.0955 377.2398 693.0955 377.2398 694.0244 376.3108 694.0244 376.3108 694.9534 375.3818 694.9534 375.3818 695.8824 374.4528 695.8824 374.4528 696.8114 373.5239 696.8114 373.5239 697.7404 372.5949 697.7404 372.5949 698.6694 370.7369 698.6694 370.7369 700.5274 370.7369 701.4563 369.7389 701.4563 Z M 378.7171 692.1665 379.0978 691.4452 379.0978 692.1665 378.7171 692.1665 Z M 379.2606 689.3795 379.0345 685.8096 379.3859 683.8854 380.0628 683.3785 381.9639 682.8945 382.759 682.5143 387.1575 677.5713 389.3237 676.0159 396.5682 672.0753 398.7862 670.0589 398.2994 667.8237 396.7727 665.5999 395.897 663.6066 395.7789 659.2973 395.9489 657.1427 396.5682 655.2185 399.3824 653.2598 403.1271 652.3265 410.6626 651.3817 412.8114 649.1233 412.316 645.2173 409.5478 637.751 408.8507 633.9142 408.2055 632.1859 407.0446 630.5843 401.0762 626.7474 399.5985 624.708 398.9216 621.1247 398.9043 617.0689 398.4808 613.2897 396.5682 610.4552 395.125 606.1805 394.9925 604.6711 395.3785 602.8737 395.9201 601.5602 395.9201 600.2812 394.6843 598.6221 388.664 593.8519 386.374 590.6373 387.9353 588.1024 389.3899 587.9641 392.7918 588.5633 394.0621 588.3328 395.0415 587.1115 395.0674 585.8095 394.8543 584.4038 395.1135 582.8714 395.9834 581.5924 398.3397 579.0921 399.2989 577.6634 400.284 574.9903 400.961 572.225 400.5491 569.7016 401.8482 547.9364 400.261 539.1681 399.9672 534.6688 400.8054 521.4644 400.6054 519.8627 399.2355 508.8939 399.1952 504.1122 399.8232 501.6004 403.3374 498.9157 404.5299 496.2196 405.8809 494.1341 408.3322 494.4682 409.7408 491.3227 411.4605 489.0068 413.7303 487.4974 422.9249 485.0432 423.7718 484.0523 426.3556 479.0632 425.238 477.8303 421.6316 476.851 420.5975 475.8024 420.73 473.982 421.7929 472.3689 423.3282 471.1014 426.6552 469.3386 428.2395 467.9329 429.5242 466.2852 430.446 464.5915 431.12 462.3677 431.771 461.3422 432.9002 460.8583 432.3193 459.8467 429.5588 455.0397 417.9272 434.853 406.2986 414.6663 394.6584 394.4796 383.0297 374.2929 371.3953 354.1062 359.758 333.908 348.138 313.7214 336.5007 293.5462 336.1061 292.8664 335.7028 292.1751 335.2995 291.4722 334.9049 290.7809 334.5074 290.0896 334.0983 289.4098 333.7066 288.73 333.3033 288.0386 341.6367 288.3728 346.041 287.9234 353.5591 286.1145 357.2232 286.679 360.9563 287.716 364.9775 288.3382 371.3003 288.1078 380.0282 289.1332 384.156 290.078 388.013 289.6978 389.75 290.0089 398.0344 293.5462 398.5356 293.6269 399.5524 293.6269 400.0478 293.5462 402.6691 293.4079 407.9405 294.8482 410.628 295.1823 413.4279 294.5256 416.4639 293.3964 419.4769 292.7627 422.8328 293.7421 424.7195 294.6869 422.8961 297.2678 421.597 299.964 420.9806 302.8445 421.4443 307.4073 421.7814 308.4442 422.6801 309.0319 424.6417 309.0895 440.5393 305.8979 443.6272 304.3539 449.4171 300.2175 454.1872 298.639 456.0538 298.3509 457.9377 298.3509 459.8618 298.6735 461.4461 298.2242 464.9892 294.9634 467.0113 293.9149 472.2654 293.4079 474.1953 292.6244 476.4824 291.0113 478.5967 288.9028 480.4748 286.5292 482.0073 284.0981 484.9281 277.5305 486.4894 275.3989 492.7631 268.7852 496.6864 261.4802 498.2707 259.6598 500.8689 257.8738 504.3025 256.2262 506.1576 255.6501 508.0414 255.4196 511.21 255.9381 524.4949 255.3159 526.1541 255.5579 527.7615 256.0073 529.8873 257.2286 534.2714 260.6391 536.4088 261.4918 540.2053 260.5239 542.0546 257.3093 543.0685 253.2765 544.336 249.9351 545.5458 248.6907 548.9275 245.9254 550.339 244.2547 552.5339 240.8212 553.7783 239.3348 555.4893 237.8139 557.667 237.1571 561.6536 235.2214 566.2394 233.689 568.4862 232.2948 570.4392 230.4743 571.989 228.4119 572.4786 227.1445 572.519 226.2342 572.807 225.3931 574.0284 224.4022 575.0481 224.1026 579.9738 224.022 581.2585 223.8146 582.4452 223.3998 583.2864 222.7085 583.4649 221.6369 582.8255 219.2057 583.0041 218.2264 584.5999 217.4198 587.1462 217.005 591.7724 216.8437 593.7945 217.1433 598.1729 218.307 600.074 218.2955 601.4567 217.5005 602.2863 216.2676 602.9315 215.0002 603.7496 214.0899 604.8614 213.7097 607.2062 213.5945 608.3987 213.3756 613.4972 210.5181 631.5178 192.2556 646.2372 181.0446 648.3573 179.9385 657.454 176.4703 658.5601 175.779 659.1477 174.8688 659.407 173.6359 659.8045 172.4952 659.8067 172.4924 660.5073 171.608 661.7056 171.2048 674.8638 168.9349 681.6619 169.4649 683.9087 169.1769 686.0748 168.4049 690.7067 165.8124 692.5416 165.1096 703.4616 163.4619 705.5068 162.713 708.9634 160.4777 710.8934 159.6712 717.0462 159.0374 717.4667 159.2448 717.8873 159.7057 718.3712 160.1436 718.9732 160.2473 719.5378 159.844 720.3242 158.5074 720.7793 158.1733 722.45 157.8507 723.0377 157.9774 724.4203 158.4729 727.3786 160.1205 728.8621 160.5007 730.9908 160.0283 735.9769 156.9865 738.0624 156.3874 740.027 156.2606 741.594 156.4219 746.1481 157.4935 747.4817 157.5511 748.8241 156.8252 750.6474 154.9241 750.9153 155.7076 751.3906 156.6754 751.9782 157.5511 752.6033 158.012 753.7296 157.8391 754.032 156.8482 754.0119 155.6499 754.1501 154.8204 755.0575 152.6312 755.72 152.1127 756.4286 153.5875 756.6792 154.6706 756.9702 155.5002 757.5175 156.0993 758.5487 156.4911 762.7514 154.7627 764.4826 154.6706 764.062 157.2054 763.6645 158.5996 764.1311 158.9337 765.0299 158.83 765.92 158.9453 766.2224 158.8761 767.4207 158.4498 767.9392 158.3922 768.6449 158.7494 769.6387 159.9016 770.2206 160.397 773.5216 162.5747 775.1376 163.3582 777.1741 163.8076 778.528 163.7269 778.6875 163.5728 780.4203 163.5728 780.4203 162.6438 783.2072 162.6438 783.2072 163.5728 784.1362 163.5728 784.1362 164.5017 785.0652 164.5017 785.0652 165.4307 785.9942 165.4307 785.9942 166.3597 786.9232 166.3597 786.9232 167.2887 787.8522 167.2887 787.8522 168.2177 788.7811 168.2177 788.7811 169.1467 789.7101 169.1467 789.7101 170.0757 790.6391 170.0757 790.6391 171.0047 791.5681 171.0047 791.5681 171.9336 790.6391 171.9336 790.6391 173.7916 791.5681 173.7916 791.5681 174.7206 792.4971 174.7206 792.4971 176.5786 793.4261 176.5786 793.4261 180.2945 792.4971 180.2945 792.4971 181.2235 793.4261 181.2235 793.4261 183.0815 794.3551 183.0815 794.3551 189.5844 796.213 189.5844 796.213 190.5134 797.142 190.5134 797.142 191.4424 798.071 191.4424 798.071 193.3003 799 193.3003 799 197.0163 796.213 197.0163 796.213 196.0873 795.284 196.0873 795.284 197.0163 792.4971 197.0163 792.4971 197.9453 791.5681 197.9453 791.5681 198.8743 790.6391 198.8743 790.6391 201.6612 789.7101 201.6612 789.7101 202.5902 788.7811 202.5902 788.7811 204.4482 787.8522 204.4482 787.8522 205.3772 786.9232 205.3772 786.9232 210.0221 783.2072 210.0221 783.2072 208.1641 782.2782 208.1641 782.2782 209.0931 780.4203 209.0931 780.4203 210.0221 779.4913 210.0221 779.4913 210.9511 778.5623 210.9511 778.5623 211.8801 777.6333 211.8801 777.6333 212.8091 775.7753 212.8091 775.7753 213.7381 774.8463 213.7381 774.8463 212.8091 772.9884 212.8091 772.9884 213.7381 772.0594 213.7381 772.0594 216.525 770.2014 216.525 770.2014 217.454 769.2724 217.454 769.2724 223.0279 765.5565 223.0279 765.5565 223.9569 764.6275 223.9569 764.6275 225.8149 764.6275 227.6729 765.5565 227.6729 765.5565 234.1758 764.6275 234.1758 764.6275 236.0338 762.7695 236.0338 762.7695 236.9627 761.8405 236.9627 761.8405 237.8917 760.9115 237.8917 760.9115 239.7497 759.9825 239.7497 759.9825 241.6077 759.0535 241.6077 759.0535 243.4657 758.1246 243.4657 758.1246 244.3946 757.1956 244.3946 757.1956 245.3236 754.4086 245.3236 754.4086 246.2526 753.4796 246.2526 753.4796 247.1816 750.6927 247.1816 750.6927 248.1106 749.7637 248.1106 749.7637 249.0396 747.9057 249.0396 747.9057 249.9686 746.9767 249.9686 746.9767 250.8976 745.1187 250.8976 745.1187 251.8265 744.1898 251.8265 744.1898 252.7555 743.2608 252.7555 743.2608 253.6845 742.3318 253.6845 742.3318 254.6135 739.5448 254.6135 739.5448 253.6845 738.6158 253.6845 738.6158 254.6135 736.7579 254.6135 736.7579 253.6845 734.8999 253.6845 734.8999 252.7555 732.1129 252.7555 732.1129 251.8265 729.326 251.8265 729.326 252.7555 726.539 252.7555 726.539 253.6845 721.8941 253.6845 721.8941 254.6135 720.9651 254.6135 720.9651 256.4715 721.8941 256.4715 721.8941 257.4005 720.9651 257.4005 720.9651 259.2584 720.0361 259.2584 720.0361 260.1874 719.1071 260.1874 719.1071 261.1164 718.1781 261.1164 718.1781 260.1874 712.6042 260.1874 712.6042 261.1164 709.8172 261.1164 709.8172 262.9744 708.8882 262.9744 708.8882 263.9034 707.9593 263.9034 707.9593 267.6193 707.0303 267.6193 707.0303 268.5483 707.9593 268.5483 707.9593 269.4773 708.8882 269.4773 708.8882 270.4063 709.8172 270.4063 709.8172 271.3353 710.7462 271.3353 710.7462 276.9092 711.6752 276.9092 711.6752 282.4831 711.6752 283.4121 710.7462 283.4121 710.7462 284.3411 709.8172 284.3411 709.8172 285.2701 707.9593 285.2701 707.9593 286.1991 702.3853 286.1991 702.3853 285.2701 700.5274 285.2701 700.5274 284.3411 698.6694 284.3411 698.6694 283.4121 696.8114 283.4121 696.8114 282.4831 695.8824 282.4831 695.8824 281.5541 694.9534 281.5541 694.9534 280.6251 693.0955 280.6251 693.0955 281.5541 692.1665 281.5541 692.1665 283.4121 691.2375 283.4121 691.2375 286.1991 690.3085 286.1991 690.3085 287.1281 687.5215 287.1281 687.5215 288.057 686.5925 288.057 686.5925 288.986 685.6636 288.986 685.6636 289.915 682.8766 289.915 682.8766 290.844 681.0186 290.844 677.3027 290.844 677.3027 291.773 670.7998 291.773 670.7998 292.702 668.0128 292.702 668.0128 293.631 667.0838 293.631 667.0838 294.56 665.2258 294.56 665.2258 295.4889 663.3679 295.4889 663.3679 296.4179 659.6519 296.4179 659.6519 297.3469 658.7229 297.3469 658.7229 298.2759 656.865 298.2759 656.865 299.2049 655.007 299.2049 655.007 300.1339 654.078 300.1339 654.078 301.9919 645.7171 301.9919 645.7171 302.9208 643.8591 302.9208 643.8591 303.8498 641.0722 303.8498 641.0722 301.9919 639.2142 301.9919 639.2142 301.0629 638.2852 301.0629 638.2852 300.1339 635.4983 300.1339 635.4983 301.9919 633.6403 301.9919 633.6403 302.9208 632.7113 302.9208 632.7113 303.8498 631.7823 303.8498 631.7823 304.7788 630.8533 304.7788 630.8533 303.8498 629.9243 303.8498 629.9243 304.7788 628.9953 304.7788 628.9953 305.7078 628.0664 305.7078 628.0664 306.6368 625.2794 306.6368 625.2794 305.7078 622.4924 305.7078 622.4924 307.5658 621.5634 307.5658 621.5634 309.4237 619.7055 309.4237 619.7055 310.3527 618.7765 310.3527 618.7765 311.2817 617.8475 311.2817 617.8475 312.2107 616.9185 312.2107 616.9185 313.1397 615.9895 313.1397 615.9895 314.0687 613.2026 314.0687 613.2026 314.9977 612.2736 314.9977 612.2736 314.0687 611.3446 314.0687 611.3446 313.1397 607.6286 313.1397 607.6286 312.2107 606.6996 312.2107 606.6996 311.2817 605.7707 311.2817 605.7707 312.2107 604.8417 312.2107 604.8417 313.1397 605.7707 313.1397 605.7707 316.8556 604.8417 316.8556 604.8417 315.9267 602.0547 315.9267 602.0547 317.7846 600.1967 317.7846 600.1967 319.6426 599.2678 319.6426 599.2678 318.7136 596.4808 318.7136 596.4808 317.7846 595.5518 317.7846 595.5518 316.8556 593.6938 316.8556 593.6938 318.7136 589.0489 318.7136 589.0489 317.7846 584.404 317.7846 584.404 316.8556 583.475 316.8556 583.475 315.9267 580.688 315.9267 580.688 316.8556 579.759 316.8556 579.759 317.7846 577.901 317.7846 577.901 321.5006 576.9721 321.5006 576.9721 322.4296 575.1141 322.4296 575.1141 325.2165 574.1851 325.2165 574.1851 326.1455 572.3271 326.1455 572.3271 327.0745 571.3981 327.0745 571.3981 328.9325 570.4691 328.9325 570.4691 329.8615 566.7532 329.8615 566.7532 330.7905 564.8952 330.7905 564.8952 328.9325 563.9662 328.9325 563.9662 327.0745 563.0373 327.0745 563.0373 326.1455 562.1083 326.1455 562.1083 325.2165 560.2503 325.2165 560.2503 327.0745 555.6054 327.0745 555.6054 329.8615 554.6764 329.8615 554.6764 330.7905 553.7474 330.7905 553.7474 331.7194 552.8184 331.7194 552.8184 332.6484 551.8894 332.6484 551.8894 334.5064 550.9604 334.5064 550.9604 336.3644 550.0314 336.3644 550.0314 337.2934 547.2445 337.2934 547.2445 339.1513 545.3865 339.1513 545.3865 338.2224 539.8126 338.2224 539.8126 339.1513 537.9546 339.1513 537.9546 340.0803 536.0966 340.0803 536.0966 341.0093 535.1676 341.0093 535.1676 341.9383 534.2386 341.9383 534.2386 344.7253 533.3097 344.7253 533.3097 345.6542 531.4517 345.6542 531.4517 346.5832 530.5227 346.5832 530.5227 345.6542 529.5937 345.6542 529.5937 348.4412 528.6647 348.4412 528.6647 349.3702 524.0198 349.3702 524.0198 350.2992 523.0908 350.2992 523.0908 352.1572 522.1618 352.1572 522.1618 353.0861 521.2328 353.0861 521.2328 352.1572 518.4459 352.1572 518.4459 351.2282 516.5879 351.2282 516.5879 350.2992 514.7299 350.2992 514.7299 351.2282 513.8009 351.2282 513.8009 353.0861 509.156 353.0861 509.156 355.8731 508.227 355.8731 508.227 356.8021 507.298 356.8021 507.298 358.6601 506.369 358.6601 506.369 362.376 507.298 362.376 507.298 363.305 506.369 363.305 506.369 367.021 507.298 367.021 507.298 368.8789 505.44 368.8789 505.44 371.6659 504.5111 371.6659 504.5111 367.021 502.6531 367.021 502.6531 366.092 500.7951 366.092 500.7951 367.021 498.9371 367.021 498.9371 367.9499 498.0081 367.9499 498.0081 368.8789 497.0792 368.8789 497.0792 369.8079 493.3632 369.8079 493.3632 370.7369 492.4342 370.7369 492.4342 371.6659 489.6473 371.6659 489.6473 372.5949 488.7183 372.5949 488.7183 373.5239 485.9313 373.5239 485.9313 374.4529 485.0023 374.4529 485.0023 377.2398 483.1444 377.2398 483.1444 378.1688 480.3574 378.1688 480.3574 377.2398 478.4994 377.2398 478.4994 376.3108 476.6414 376.3108 476.6414 377.2398 475.7125 377.2398 475.7125 378.1688 476.6414 378.1688 476.6414 379.0978 477.5704 379.0978 477.5704 384.6717 478.4994 384.6717 478.4994 390.2456 479.4284 390.2456 479.4284 399.5355 481.2864 399.5355 481.2864 400.4645 482.2154 400.4645 482.2154 401.3935 481.2864 401.3935 481.2864 402.3225 479.4284 402.3225 479.4284 403.2515 478.4994 403.2515 478.4994 404.1804 476.6414 404.1804 476.6414 405.1094 475.7125 405.1094 475.7125 414.3993 474.7835 414.3993 474.7835 417.1863 473.8545 417.1863 473.8545 419.0442 472.9255 419.0442 472.9255 420.9022 471.9965 420.9022 471.9965 421.8312 470.1385 421.8312 470.1385 422.7602 468.2806 422.7602 468.2806 423.6892 466.4226 423.6892 466.4226 424.6182 465.4936 424.6182 465.4936 425.5471 463.6356 425.5471 463.6356 427.4051 462.7066 427.4051 462.7066 429.2631 461.7776 429.2631 461.7776 430.1921 460.8487 430.1921 460.8487 431.1211 457.1327 431.1211 457.1327 430.1921 454.3457 430.1921 454.3457 431.1211 453.4168 431.1211 453.4168 432.0501 452.4878 432.0501 452.4878 432.979 451.5588 432.979 451.5588 433.908 449.7008 433.908 449.7008 434.837 448.7718 434.837 448.7718 439.482 446.9139 439.482 446.9139 440.4109 445.9849 440.4109 445.9849 441.3399 445.0559 441.3399 445.0559 442.2689 442.2689 442.2689 442.2689 441.3399 441.3399 441.3399 441.3399 440.4109 440.4109 440.4109 440.4109 438.553 438.553 438.553 438.553 441.3399 434.837 441.3399 434.837 439.482 433.908 439.482 433.908 438.553 431.1211 438.553 431.1211 436.695 430.1921 436.695 430.1921 434.837 426.4761 434.837 426.4761 435.766 423.6892 435.766 423.6892 441.3399 424.6182 441.3399 424.6182 444.1269 426.4761 444.1269 426.4761 445.9849 428.3341 445.9849 428.3341 446.9139 429.2631 446.9139 429.2631 447.8428 431.1211 447.8428 431.1211 446.9139 439.482 446.9139 439.482 447.8428 440.4109 447.8428 440.4109 448.7718 443.1979 448.7718 443.1979 450.6298 444.1269 450.6298 444.1269 449.7008 448.7718 449.7008 448.7718 453.4168 449.7008 453.4168 449.7008 454.3458 451.5588 454.3458 451.5588 453.4168 453.4168 453.4168 453.4168 454.3458 455.2747 454.3458 455.2747 455.2747 456.2037 455.2747 456.2037 456.2037 457.1327 456.2037 457.1327 457.1327 458.0617 457.1327 458.0617 458.0617 458.9907 458.0617 458.9907 458.9907 459.9197 458.9907 459.9197 459.9197 460.8487 459.9197 460.8487 460.8487 461.7776 460.8487 461.7776 461.7776 462.7066 461.7776 462.7066 462.7066 464.5646 462.7066 464.5646 463.6356 465.4936 463.6356 465.4936 464.5646 467.3516 464.5646 467.3516 466.4226 466.4226 466.4226 466.4226 467.3516 465.4936 467.3516 465.4936 469.2095 464.5646 469.2095 464.5646 473.8545 463.6356 473.8545 463.6356 478.4994 462.7066 478.4994 462.7066 483.1444 461.7776 483.1444 461.7776 485.0023 460.8487 485.0023 460.8487 485.9313 459.9197 485.9313 459.9197 487.7893 458.9907 487.7893 458.9907 488.7183 458.0617 488.7183 458.0617 489.6473 457.1327 489.6473 457.1327 488.7183 456.2037 488.7183 456.2037 487.7893 452.4878 487.7893 452.4878 486.8603 448.7718 486.8603 448.7718 490.5763 447.8428 490.5763 447.8428 496.1502 446.9139 496.1502 446.9139 498.9371 445.9849 498.9371 445.9849 500.7951 445.0559 500.7951 445.0559 503.5821 445.9849 503.5821 445.9849 508.227 445.0559 508.227 445.0559 509.156 445.9849 509.156 445.9849 510.085 446.9139 510.085 446.9139 511.014 445.0559 511.014 445.0559 517.5169 443.1979 517.5169 443.1979 520.3038 441.3399 520.3038 441.3399 521.2328 440.4109 521.2328 440.4109 522.1618 439.482 522.1618 439.482 524.0198 438.553 524.0198 438.553 524.9488 437.624 524.9488 437.624 525.8778 436.695 525.8778 436.695 534.2387 435.766 534.2387 435.766 536.0966 434.837 536.0966 434.837 537.0256 433.908 537.0256 433.908 539.8126 432.979 539.8126 432.979 541.6705 432.0501 541.6705 432.0501 543.5285 431.1211 543.5285 431.1211 544.4575 430.1921 544.4575 430.1921 547.2445 429.2631 547.2445 429.2631 548.1735 428.3341 548.1735 428.3341 550.9604 427.4051 550.9604 427.4051 555.6054 426.4761 555.6054 426.4761 562.1083 426.4761 563.9662 425.5471 563.9662 425.5471 565.8242 423.6892 565.8242 423.6892 567.6822 421.8312 567.6822 421.8312 568.6112 420.9022 568.6112 420.9022 577.901 419.9732 577.901 419.9732 582.546 419.0442 582.546 419.0442 583.475 418.1152 583.475 418.1152 584.404 417.1863 584.404 417.1863 585.3329 416.2573 585.3329 416.2573 586.2619 415.3283 586.2619 415.3283 585.3329 413.4703 585.3329 413.4703 584.404 411.6123 584.404 411.6123 585.3329 410.6834 585.3329 410.6834 586.2619 409.7544 586.2619 409.7544 587.1909 406.0384 587.1909 406.0384 588.1199 406.9674 588.1199 406.9674 589.0489 407.8964 589.0489 407.8964 591.8359 408.8254 591.8359 408.8254 595.5518 406.9674 595.5518 406.9674 596.4808 406.0384 596.4808 406.0384 597.4098 405.1094 597.4098 405.1094 598.3388 404.1804 598.3388 404.1804 599.2678 403.2515 599.2678 403.2515 600.1967 402.3225 600.1967 402.3225 601.1257 401.3935 601.1257 401.3935 602.0547 402.3225 602.0547 402.3225 602.9837 403.2515 602.9837 403.2515 605.7707 404.1804 605.7707 404.1804 606.6997 407.8964 606.6997 407.8964 607.6286 410.6834 607.6286 410.6834 608.5576 411.6123 608.5576 411.6123 611.3446 415.3283 611.3446 415.3283 612.2736 419.0442 612.2736 419.0442 613.2026 423.6892 613.2026 423.6892 614.1315 424.6182 614.1315 424.6182 615.0605 425.5471 615.0605 425.5471 617.8475 426.4761 617.8475 426.4761 628.0664 425.5471 628.0664 425.5471 628.9953 424.6182 628.9953 424.6182 629.9243 423.6892 629.9243 423.6892 630.8533 426.4761 630.8533 426.4761 631.7823 427.4051 631.7823 427.4051 632.7113 431.1211 632.7113 431.1211 633.6403 432.0501 633.6403 432.0501 634.5693 433.908 634.5693 433.908 635.4983 434.837 635.4983 434.837 636.4272 435.766 636.4272 435.766 637.3562 436.695 637.3562 436.695 638.2852 437.624 638.2852 437.624 639.2142 438.553 639.2142 438.553 640.1432 439.482 640.1432 439.482 641.0722 440.4109 641.0722 440.4109 644.7881 437.624 644.7881 437.624 643.8591 436.695 643.8591 436.695 642.9302 435.766 642.9302 435.766 642.0012 433.908 642.0012 433.908 641.0722 432.979 641.0722 432.979 639.2142 432.0501 639.2142 432.0501 637.3562 430.1921 637.3562 430.1921 636.4272 427.4051 636.4272 427.4051 642.0012 426.4761 642.0012 426.4761 643.8591 425.5471 643.8591 425.5471 644.7881 424.6182 644.7881 424.6182 645.7171 423.6892 645.7171 423.6892 646.6461 421.8312 646.6461 421.8312 647.5751 420.9022 647.5751 420.9022 648.5041 421.8312 648.5041 421.8312 650.362 422.7602 650.362 422.7602 651.291 423.6892 651.291 423.6892 655.007 424.6182 655.007 424.6182 657.7939 423.6892 657.7939 423.6892 658.7229 424.6182 658.7229 424.6182 660.5809 423.6892 660.5809 423.6892 661.5099 422.7602 661.5099 422.7602 662.4389 421.8312 662.4389 421.8312 663.3679 420.9022 663.3679 420.9022 667.0838 421.8312 667.0838 421.8312 668.9418 422.7602 668.9418 422.7602 670.7998 421.8312 670.7998 421.8312 674.5157 417.1863 674.5157 417.1863 673.5867 416.2573 673.5867 416.2573 672.6577 414.3993 672.6577 414.3993 671.7288 413.4703 671.7288 413.4703 670.7998 411.6123 670.7998 411.6123 671.7288 410.6834 671.7288 410.6834 672.6577 408.8254 672.6577 408.8254 673.5867 407.8964 673.5867 407.8964 674.5157 406.9674 674.5157 406.9674 676.3737 406.0384 676.3737 406.0384 678.2317 405.1094 678.2317 405.1094 679.1607 404.1804 679.1607 404.1804 680.0896 402.3225 680.0896 402.3225 681.0186 388.3877 681.0186 388.3877 681.9476 386.5297 681.9476 386.5297 682.8766 385.6007 682.8766 385.6007 683.8056 384.6717 683.8056 384.6717 684.7346 383.7427 684.7346 383.7427 685.6636 382.8137 685.6636 382.8137 686.5925 381.8847 686.5925 381.8847 687.5215 380.9558 687.5215 380.9558 688.4505 380.0268 688.4505 380.0268 689.3795 379.2606 689.3795 Z"/>
<path d="M 333.3033 288.0386 331.2293 288.0041 317.4086 289.4443 313.7043 288.7069 309.5102 286.0338 307.586 285.2388 304.6018 285.0314 300.0736 285.331 297.9075 285.2042 295.7817 284.5935 291.1095 284.3631 264.0614 297.9476 259.5188 299.5031 253.9536 300.5747 248.1984 300.8512 242.5929 299.9409 237.4684 297.4522 234.657 294.9058 229.6737 289.0411 226.6722 286.4601 224.2814 286.9786 214.7181 294.5601 214.7411 285.5384 214.7728 271.3547 214.8103 257.171 214.8448 242.9758 214.8851 228.7921 214.9255 214.5969 214.96 200.4017 214.9946 186.2065 215.0172 176.9559 215.0292 172.0228 215.0407 165.3515 216.0921 160.8695 216.7373 159.6942 217.6447 158.7148 218.7191 157.9083 219.8569 157.24 220.433 157.24 221.6054 157.9774 222.2074 157.8968 222.7662 157.2515 223.0428 155.9034 223.4115 155.2006 224.7624 153.3455 225.6352 151.4329 225.8081 149.3474 225.0534 147.0545 223.7629 145.4529 220.4849 142.8835 219.2376 141.2128 218.5146 139.1503 217.6908 135.5094 216.6048 133.4699 217.1838 133.3202 220.145 133.2395 220.7268 133.4469 222.2391 133.6889 223.2819 133.4239 221.7725 130.7968 221.9856 129.3796 222.9103 128.2735 224.3304 127.9163 224.0999 127.5361 223.809 126.6834 223.5699 126.3263 225.6525 125.4045 226.2056 124.0103 226.4994 122.1668 227.6487 120.1965 227.8273 119.8854 227.6891 118.4336 223.0082 118.9176 220.7902 119.39 218.6154 120.427 216.3024 122.4088 212.405 127.1558 210.3138 129.2183 202.9079 133.3317 200.6208 135.0369 196.4297 139.2886 194.2232 141.0284 188.6148 144.0242 186.8202 146.0405 183.6229 150.6724 182.3641 151.744 179.4749 153.4838 178.1844 154.5438 177.231 155.8689 175.8973 158.6918 175.0447 159.9707 173.0139 161.5262 166.0978 163.3467 158.9278 166.4865 158.9278 162.6438 159.8568 162.6438 159.8568 161.7148 161.7148 161.7148 161.7148 160.7858 162.6438 160.7858 162.6438 159.8568 163.5728 159.8568 163.5728 157.9988 162.6438 157.9988 162.6438 157.0698 161.7148 157.0698 161.7148 156.1409 160.7858 156.1409 160.7858 153.3539 161.7148 153.3539 161.7148 152.4249 162.6438 152.4249 162.6438 151.4959 163.5728 151.4959 163.5728 149.638 162.6438 149.638 162.6438 147.78 163.5728 147.78 163.5728 144.993 165.4307 144.993 165.4307 143.135 166.3597 143.135 166.3597 141.2771 167.2887 141.2771 167.2887 140.3481 168.2177 140.3481 168.2177 138.4901 169.1467 138.4901 169.1467 137.5611 171.0047 137.5611 171.0047 138.4901 174.7206 138.4901 174.7206 137.5611 177.5076 137.5611 177.5076 135.7031 178.4366 135.7031 178.4366 132.9162 180.2945 132.9162 180.2945 131.9872 181.2235 131.9872 181.2235 125.4843 184.0105 125.4843 184.0105 126.4133 184.9395 126.4133 184.9395 127.3423 185.8684 127.3423 185.8684 124.5553 186.7974 124.5553 186.7974 122.6973 187.7264 122.6973 187.7264 121.7683 188.6554 121.7683 188.6554 120.8393 196.0873 120.8393 196.0873 121.7683 197.0163 121.7683 197.0163 122.6973 198.8743 122.6973 198.8743 121.7683 199.8033 121.7683 199.8033 120.8393 200.7322 120.8393 200.7322 118.9814 201.6612 118.9814 201.6612 118.0524 203.5192 118.0524 203.5192 117.1234 205.3772 117.1234 205.3772 116.1944 207.2352 116.1944 207.2352 115.2654 208.1641 115.2654 208.1641 113.4075 209.0931 113.4075 209.0931 112.4785 210.0221 112.4785 210.0221 111.5495 210.9511 111.5495 210.9511 110.6205 211.8801 110.6205 211.8801 109.6915 212.8091 109.6915 212.8091 108.7625 212.8091 101.3306 213.7381 101.3306 213.7381 99.4726 214.6671 99.4726 214.6671 98.5437 215.596 98.5437 215.596 97.6147 216.525 97.6147 216.525 96.6857 222.099 96.6857 222.099 97.6147 227.6729 97.6147 227.6729 95.7567 228.6019 95.7567 228.6019 94.8277 231.3888 94.8277 231.3888 95.7567 233.2468 95.7567 233.2468 92.0407 236.0338 92.0407 236.0338 91.1118 236.9627 91.1118 236.9627 90.1828 237.8917 90.1828 237.8917 89.2538 236.9627 89.2538 236.9627 88.3248 236.0338 88.3248 236.0338 80.8929 236.9627 80.8929 236.9627 79.0349 236.0338 79.0349 236.0338 71.603 238.8207 71.603 238.8207 70.674 242.5367 70.674 242.5367 69.7451 245.3236 69.7451 245.3236 68.8161 247.1816 68.8161 247.1816 69.7451 256.4715 69.7451 256.4715 67.8871 257.4005 67.8871 257.4005 66.9581 258.3295 66.9581 258.3295 66.0291 259.2584 66.0291 259.2584 65.1001 262.0454 65.1001 262.0454 66.0291 263.9034 66.0291 263.9034 66.9581 265.7613 66.9581 265.7613 66.0291 266.6903 66.0291 266.6903 65.1001 267.6193 65.1001 267.6193 64.1711 268.5483 64.1711 268.5483 63.2421 269.4773 63.2421 269.4773 62.3132 270.4063 62.3132 270.4063 61.3842 273.1932 61.3842 273.1932 62.3132 275.0512 62.3132 275.0512 63.2421 275.9802 63.2421 275.9802 64.1711 276.9092 64.1711 276.9092 66.0291 277.8382 66.0291 277.8382 66.9581 278.7672 66.9581 278.7672 67.8871 280.6251 67.8871 280.6251 68.8161 281.5541 68.8161 281.5541 67.8871 282.4831 67.8871 282.4831 66.0291 284.3411 66.0291 284.3411 65.1001 285.2701 65.1001 285.2701 66.0291 288.986 66.0291 288.986 65.1001 292.702 65.1001 292.702 64.1711 295.4889 64.1711 295.4889 63.2421 296.4179 63.2421 296.4179 64.1711 297.3469 64.1711 297.3469 65.1001 299.2049 65.1001 299.2049 66.0291 300.1339 66.0291 300.1339 66.9581 302.9208 66.9581 302.9208 66.0291 305.7078 66.0291 305.7078 62.3132 306.6368 62.3132 306.6368 60.4552 307.5658 60.4552 307.5658 58.5972 308.4948 58.5972 308.4948 57.6682 310.3527 57.6682 310.3527 56.7392 311.2817 56.7392 311.2817 58.5972 310.3527 58.5972 310.3527 59.5262 309.4237 59.5262 309.4237 62.3132 311.2817 62.3132 311.2817 61.3842 314.0687 61.3842 314.0687 60.4552 318.7136 60.4552 318.7136 61.3842 321.5006 61.3842 321.5006 60.4552 326.1455 60.4552 326.1455 61.3842 328.0035 61.3842 328.0035 60.4552 329.8615 60.4552 329.8615 59.5262 330.7905 59.5262 330.7905 55.8102 329.8615 55.8102 329.8615 54.8813 328.9325 54.8813 328.9325 52.0943 329.8615 52.0943 329.8615 51.1653 330.7905 51.1653 330.7905 50.2363 330.7905 49.3073 329.8615 49.3073 329.8615 48.3783 328.9325 48.3783 328.9325 47.4494 327.0745 47.4494 327.0745 44.6624 326.1455 44.6624 326.1455 43.7334 325.2165 43.7334 325.2165 41.8754 324.2875 41.8754 324.2875 39.0885 330.7905 39.0885 330.7905 40.0175 331.7194 40.0175 331.7194 40.9464 332.6484 40.9464 332.6484 40.0175 335.4354 40.0175 335.4354 37.2305 336.3644 37.2305 336.3644 36.3015 337.2934 36.3015 337.2934 35.3725 338.2224 35.3725 338.2224 34.4435 340.0803 34.4435 340.0803 30.7276 345.6542 30.7276 345.6542 31.6566 347.5122 31.6566 347.5122 29.7986 349.3702 29.7986 349.3702 27.9406 350.2992 27.9406 350.2992 26.0827 353.0861 26.0827 353.0861 27.0116 356.8021 27.0116 356.8021 23.2957 357.7311 23.2957 357.7311 21.4377 358.6601 21.4377 358.6601 20.5087 359.5891 20.5087 359.5891 19.5797 361.447 19.5797 361.447 18.6508 364.234 18.6508 364.234 15.8638 365.163 15.8638 365.163 14.9348 367.021 14.9348 367.021 14.0058 368.8789 14.0058 368.8789 13.0768 370.7369 13.0768 370.7369 12.1478 372.5949 12.1478 372.5949 11.2189 382.8137 11.2189 382.8137 12.1478 383.7427 12.1478 383.7427 8.4319 384.6717 8.4319 384.6717 7.5029 385.6007 7.5029 385.6007 6.5739 386.5297 6.5739 386.5297 4.7159 387.4587 4.7159 387.4587 3.787 388.3877 3.787 388.3877 1 390.2456 1 390.2456 1.929 394.8906 1.929 394.8906 2.858 396.7485 2.858 396.7485 3.787 397.6775 3.787 397.6775 4.7159 398.6065 4.7159 398.6065 5.6449 400.4645 5.6449 400.4645 6.5739 402.3225 6.5739 403.2515 6.5739 403.2515 8.4319 405.1094 8.4319 405.1094 9.3609 407.8964 9.3609 407.8964 8.4319 408.8254 8.4319 408.8254 7.5029 409.7544 7.5029 409.7544 8.4319 410.6834 8.4319 410.6834 13.0768 413.4703 13.0768 413.4703 16.7928 414.3993 16.7928 414.3993 14.0058 422.7602 14.0058 422.7602 13.0768 423.6892 13.0768 423.6892 15.8638 421.8312 15.8638 421.8312 16.7928 420.9022 16.7928 420.9022 19.5797 421.8312 19.5797 421.8312 26.0827 422.7602 26.0827 422.7602 27.0116 423.6892 27.0116 423.6892 27.9406 424.6182 27.9406 424.6182 28.8696 425.5471 28.8696 425.5471 31.6566 424.6182 31.6566 424.6182 34.4435 433.908 34.4435 433.908 37.2305 435.766 37.2305 435.766 38.1595 437.624 38.1595 437.624 37.2305 442.2689 37.2305 442.2689 36.3015 443.1979 36.3015 443.1979 34.4435 444.1269 34.4435 444.1269 40.9464 443.1979 40.9464 443.1979 42.8044 444.1269 42.8044 444.1269 43.7334 445.9748 43.7334 445.9849 43.7431 445.9849 44.6624 445.0559 44.6624 445.0559 48.3783 447.8428 48.3783 447.8428 49.3073 447.8428 53.9523 448.7718 53.9523 448.7718 54.8813 450.6298 54.8813 450.6298 55.8102 451.5588 55.8102 451.5588 57.6682 450.6298 57.6682 450.6298 61.3842 449.7008 61.3842 449.7008 62.3132 448.7718 62.3132 448.7718 63.2421 447.8428 63.2421 447.8428 67.8871 446.9139 67.8871 446.9139 68.8161 445.9849 68.8161 445.9849 70.674 445.0559 70.674 445.0559 73.461 444.1269 73.461 444.1269 79.0349 443.1979 79.0349 443.1979 79.9639 440.4109 79.9639 440.4109 80.8929 439.482 80.8929 439.482 81.8219 438.553 81.8219 438.553 82.7509 437.624 82.7509 437.624 86.4668 438.553 86.4668 438.553 87.3958 439.482 87.3958 439.482 88.3248 440.4109 88.3248 440.4109 94.8277 441.3399 94.8277 441.3399 96.6857 443.1979 96.6857 443.1979 97.6147 446.9139 97.6147 446.9139 99.4726 448.7718 99.4726 448.7718 101.3306 455.2747 101.3306 455.2747 100.4016 456.2037 100.4016 456.2037 99.4726 457.1327 99.4726 457.1327 101.3306 462.7066 101.3306 462.7066 102.2596 461.7776 102.2596 461.7776 105.0466 460.8487 105.0466 460.8487 106.9045 460.8487 107.8335 461.7776 107.8335 461.7776 110.6205 464.5646 110.6205 464.5646 112.4785 465.4936 112.4785 465.4936 113.4075 466.4226 113.4075 466.4226 114.3364 467.3516 114.3364 467.3516 115.2654 469.2095 115.2654 469.2095 114.3364 475.7125 114.3364 475.7125 113.4075 476.6414 113.4075 476.6414 114.3364 479.4284 114.3364 479.4284 113.4075 484.0733 113.4075 484.0733 112.4785 485.0023 112.4785 485.0023 111.5495 488.7183 111.5495 488.7183 108.7625 492.4342 108.7625 492.4342 110.6205 495.2212 110.6205 495.2212 107.8335 497.0792 107.8335 497.0792 106.9045 498.0081 106.9045 498.0081 105.9756 498.9371 105.9756 498.9371 105.0466 499.8661 105.0466 499.8661 101.3306 500.7951 101.3306 500.7951 100.4016 502.6531 100.4016 502.6531 99.4726 505.44 99.4726 505.44 98.5437 507.298 98.5437 507.298 99.4726 508.227 99.4726 508.227 100.4016 511.014 100.4016 511.014 105.9756 511.943 105.9756 511.943 106.9045 514.7299 106.9045 514.7299 103.1886 515.6589 103.1886 515.6589 101.3306 517.5169 101.3306 517.5169 95.7567 520.3038 95.7567 520.3038 96.6857 521.2328 96.6857 521.2328 97.6147 524.9488 97.6147 524.9488 96.6857 528.6647 96.6857 528.6647 95.7567 536.0966 95.7567 536.0966 94.8277 537.0256 94.8277 537.0256 93.8987 539.8126 93.8987 539.8126 92.9697 540.7416 92.9697 540.7416 92.0407 541.6705 92.0407 541.6705 91.1118 542.5995 91.1118 542.5995 89.2538 543.5285 89.2538 543.5285 87.3958 544.4575 87.3958 544.4575 86.4668 546.3155 86.4668 546.3155 87.3958 547.2445 87.3958 547.2445 88.3248 548.1735 88.3248 548.1735 87.3958 550.0314 87.3958 550.0314 86.4668 550.9604 86.4668 550.9604 84.6088 551.8894 84.6088 551.8894 83.6799 552.8184 83.6799 552.8184 82.7509 554.6764 82.7509 554.6764 81.8219 555.6054 81.8219 555.6054 80.8929 560.2503 80.8929 560.2503 77.1769 561.1793 77.1769 561.1793 76.248 562.1083 76.248 562.1083 75.319 563.0373 75.319 563.0373 74.39 569.5402 74.39 569.5402 73.461 570.4691 73.461 570.4691 74.39 576.9721 74.39 576.9721 76.248 577.901 76.248 577.901 79.0349 578.83 79.0349 578.83 79.9639 579.759 79.9639 579.759 80.8929 580.688 80.8929 580.688 88.3248 581.617 88.3248 581.617 89.2538 582.546 89.2538 582.546 97.6147 581.617 97.6147 581.617 103.1886 580.688 103.1886 580.688 104.1176 585.3329 104.1176 585.3329 105.0466 586.2619 105.0466 586.2619 105.9756 587.1909 105.9756 587.1909 106.9045 588.1199 106.9045 588.1199 110.6205 589.0489 110.6205 589.0489 112.4785 589.9779 112.4785 589.9779 113.4075 591.8359 113.4075 591.8359 114.3364 590.9069 114.3364 590.9069 115.2654 589.9779 115.2654 589.9779 118.9814 589.0489 118.9814 589.0489 124.5553 589.9779 124.5553 589.9779 127.3423 590.9069 127.3423 590.9069 128.2712 591.8359 128.2712 591.8359 131.0582 589.0489 131.0582 589.0489 132.9162 588.1199 132.9162 588.1199 133.8452 587.1909 133.8452 587.1909 135.7031 586.2619 135.7031 586.2619 141.2771 589.0489 141.2771 589.0489 144.064 589.9779 144.064 589.9779 143.135 594.6228 143.135 594.6228 142.2061 596.4808 142.2061 596.4808 143.135 599.2678 143.135 599.2678 140.3481 600.1967 140.3481 600.1967 138.4901 605.7707 138.4901 605.7707 136.6321 606.6996 136.6321 606.6996 134.7742 607.6286 134.7742 607.6286 131.0582 609.4866 131.0582 609.4866 130.1292 610.4156 130.1292 610.4156 129.2002 612.2736 129.2002 612.2736 128.2712 613.2026 128.2712 613.2026 126.4133 616.9185 126.4133 616.9185 124.5553 617.8475 124.5553 617.8475 121.7683 620.6345 121.7683 620.6345 120.8393 621.5634 120.8393 621.5634 119.9104 622.4924 119.9104 622.4924 118.9814 623.4214 118.9814 623.4214 116.1944 624.3504 116.1944 624.3504 114.3364 626.2084 114.3364 626.2084 113.4075 627.1374 113.4075 627.1374 112.4785 628.0664 112.4785 628.0664 111.5495 628.9953 111.5495 628.9953 110.6205 631.7823 110.6205 631.7823 104.1176 632.7113 104.1176 632.7113 101.3306 633.6403 101.3306 633.6403 100.4016 635.4983 100.4016 635.4983 99.4726 636.4272 99.4726 636.4272 98.5437 639.2142 98.5437 639.2142 97.6147 640.1432 97.6147 640.1432 96.6857 641.0722 96.6857 641.0722 95.7567 642.9302 95.7567 642.9302 94.8277 643.8591 94.8277 643.8591 93.8987 644.7881 93.8987 644.7881 92.9697 645.7171 92.9697 645.7171 93.8987 648.5041 93.8987 648.5041 92.9697 651.291 92.9697 651.291 92.0407 655.936 92.0407 655.936 91.1118 656.865 91.1118 656.865 89.2538 657.7939 89.2538 657.7939 88.3248 658.7229 88.3248 658.7229 84.6088 659.6519 84.6088 659.6519 80.8929 658.7229 80.8929 658.7229 79.9639 657.7939 79.9639 657.7939 79.0349 658.7229 79.0349 658.7229 78.1059 660.5809 78.1059 660.5809 77.1769 661.5099 77.1769 661.5099 76.248 662.4389 76.248 662.4389 77.1769 665.2258 77.1769 665.2258 76.248 666.1548 76.248 666.1548 75.319 668.0128 75.319 668.0128 74.39 673.5867 74.39 673.5867 73.461 674.5157 73.461 674.5157 72.532 675.4447 72.532 675.4447 71.603 676.3737 71.603 676.3737 70.674 678.2317 70.674 678.2317 69.7451 679.1606 69.7451 679.1606 68.8161 678.2317 68.8161 678.2317 66.0291 680.0896 66.0291 680.0896 65.1001 681.0186 65.1001 681.0186 64.1711 681.9476 64.1711 681.9476 62.3132 682.8766 62.3132 682.8766 61.3842 683.8056 61.3842 683.8056 59.5262 684.7346 59.5262 684.7346 58.5972 685.6636 58.5972 685.6636 54.8813 686.5925 54.8813 686.5925 53.9523 687.5215 53.9523 687.5215 53.0233 688.4505 53.0233 688.4505 52.0943 689.3795 52.0943 689.3795 53.0233 690.3085 53.0233 690.3085 53.9523 691.2375 53.9523 691.2375 54.8813 693.0955 54.8813 693.0955 53.9523 702.3853 53.9523 702.3853 54.8813 703.3143 54.8813 703.3143 55.8102 708.8882 55.8102 708.8882 54.8813 709.8172 54.8813 709.8172 53.9523 710.7462 53.9523 710.7462 52.0943 711.6752 52.0943 711.6752 51.1653 714.4622 51.1653 714.4622 50.2363 716.3201 50.2363 716.3201 53.9523 715.3912 53.9523 715.3912 54.8813 717.2491 54.8813 717.2491 56.7392 715.3912 56.7392 715.3912 57.6682 716.3201 57.6682 716.3201 59.5262 714.4622 59.5262 714.4622 63.2421 711.6752 63.2421 711.6752 67.8871 710.7462 67.8871 710.7462 69.7451 709.8172 69.7451 709.8172 71.603 708.8882 71.603 708.8882 72.532 707.9593 72.532 707.9593 71.603 707.0303 71.603 707.0303 72.532 705.1723 72.532 705.1723 71.603 702.3853 71.603 702.3853 73.461 701.4563 73.461 701.4563 74.39 702.3853 74.39 702.3853 76.248 703.3143 76.248 703.3143 77.1769 704.2433 77.1769 704.2433 78.1059 705.1723 78.1059 705.1723 79.0349 706.1013 79.0349 706.1013 80.8929 707.0303 80.8929 707.0303 84.6088 706.1013 84.6088 706.1013 85.5378 712.6042 85.5378 712.6042 84.6088 713.5332 84.6088 713.5332 85.5378 716.3201 85.5378 716.3201 86.4668 718.1781 86.4668 718.1781 85.5378 719.1071 85.5378 719.1071 87.3958 720.0361 87.3958 720.0361 88.3248 720.9651 88.3248 720.9651 90.1828 721.8941 90.1828 721.8941 91.1118 722.823 91.1118 722.823 92.0407 721.8941 92.0407 721.8941 94.8277 722.823 94.8277 722.823 101.3306 723.752 101.3306 723.752 102.2596 724.681 102.2596 724.681 103.1886 729.326 103.1886 729.326 104.1176 732.1129 104.1176 732.1129 106.9045 729.326 106.9045 729.326 107.8335 730.2549 107.8335 730.2549 108.7625 733.0419 108.7625 733.0419 113.4075 733.9709 113.4075 733.9709 115.2654 733.0419 115.2654 733.0419 114.3364 729.326 114.3364 729.326 115.2654 728.397 115.2654 728.397 117.1234 727.468 117.1234 727.468 118.0524 725.61 118.0524 725.61 118.9814 725.61 123.6263 726.539 123.6263 726.539 125.4843 727.468 125.4843 727.468 126.4133 733.0419 126.4133 733.0419 125.4843 733.9709 125.4843 733.9709 124.5553 736.7579 124.5553 736.7579 123.6263 737.6868 123.6263 737.6868 122.6973 739.5448 122.6973 739.5448 123.6263 743.2608 123.6263 743.2608 126.4133 745.1187 126.4133 745.1187 125.4843 746.0477 125.4843 746.0477 124.5553 754.4086 124.5553 754.4086 127.3423 753.4796 127.3423 753.4796 128.2712 754.4086 128.2712 754.4086 130.1292 755.3376 130.1292 755.3376 131.9872 756.2666 131.9872 756.2666 132.9162 755.3376 132.9162 755.3376 135.7031 753.4796 135.7031 753.4796 138.4901 754.4086 138.4901 754.4086 139.4191 755.3376 139.4191 755.3376 141.2771 756.2666 141.2771 756.2666 142.2061 757.1956 142.2061 757.1956 144.064 763.6985 144.064 763.6985 145.922 764.6275 145.922 764.6275 151.4959 766.4854 151.4959 766.4854 152.4249 767.4144 152.4249 767.4144 151.4959 768.3434 151.4959 768.3434 152.4249 770.2014 152.4249 770.2014 147.78 772.9884 147.78 772.9884 148.709 773.9173 148.709 773.9173 152.4249 774.8463 152.4249 774.8463 153.3539 775.7753 153.3539 775.7753 154.2829 776.7043 154.2829 776.7043 155.2119 777.6333 155.2119 777.6333 158.9278 776.7043 158.9278 776.7043 159.8568 777.6333 159.8568 777.6333 162.6438 778.5623 162.6438 778.5623 163.5728 778.6875 163.5728 778.528 163.7269 777.1741 163.8076 775.1376 163.3582 773.5216 162.5747 770.2206 160.397 769.6387 159.9016 768.6449 158.7494 767.9392 158.3922 767.4207 158.4498 766.2224 158.8761 765.92 158.9453 765.0299 158.83 764.1311 158.9337 763.6645 158.5996 764.062 157.2054 764.4826 154.6706 762.7514 154.7627 758.5487 156.4911 757.5175 156.0993 756.9702 155.5002 756.6792 154.6706 756.4286 153.5875 755.72 152.1127 755.0575 152.6312 754.1501 154.8204 754.0119 155.6499 754.032 156.8482 753.7296 157.8391 752.6033 158.012 751.9782 157.5511 751.3906 156.6754 750.9153 155.7076 750.6474 154.9241 748.8241 156.8252 747.4817 157.5511 746.1481 157.4935 741.594 156.4219 740.027 156.2606 738.0624 156.3874 735.9769 156.9865 730.9908 160.0283 728.8621 160.5007 727.3786 160.1205 724.4203 158.4729 723.0377 157.9774 722.45 157.8507 720.7793 158.1733 720.3242 158.5074 719.5378 159.844 718.9732 160.2473 718.3712 160.1436 717.8873 159.7057 717.4667 159.2448 717.0462 159.0374 710.8934 159.6712 708.9634 160.4777 705.5068 162.713 703.4616 163.4619 692.5416 165.1096 690.7067 165.8124 686.0748 168.4049 683.9087 169.1769 681.6619 169.4649 674.8638 168.9349 661.7056 171.2048 660.5073 171.608 659.8067 172.4924 659.8045 172.4952 659.407 173.6359 659.1477 174.8688 658.5601 175.779 657.454 176.4703 648.3573 179.9385 646.2372 181.0446 631.5178 192.2556 613.4972 210.5181 608.3987 213.3756 607.2062 213.5945 604.8614 213.7097 603.7496 214.0899 602.9315 215.0002 602.2863 216.2676 601.4567 217.5005 600.074 218.2955 598.1729 218.307 593.7945 217.1433 591.7724 216.8437 587.1462 217.005 584.5999 217.4198 583.0041 218.2264 582.8255 219.2057 583.4649 221.6369 583.2864 222.7085 582.4452 223.3998 581.2585 223.8146 579.9738 224.022 575.0481 224.1026 574.0284 224.4022 572.807 225.3931 572.519 226.2342 572.4786 227.1445 571.989 228.4119 570.4392 230.4743 568.4862 232.2948 566.2394 233.689 561.6536 235.2214 557.667 237.1571 555.4893 237.8139 553.7783 239.3348 552.5339 240.8212 550.339 244.2547 548.9275 245.9254 545.5458 248.6907 544.336 249.9351 543.0685 253.2765 542.0546 257.3093 540.2053 260.5239 536.4088 261.4918 534.2714 260.6391 529.8873 257.2286 527.7615 256.0073 526.1541 255.5579 524.4949 255.3159 511.21 255.9381 508.0414 255.4196 506.1576 255.6501 504.3025 256.2262 500.8689 257.8738 498.2707 259.6598 496.6864 261.4802 492.7631 268.7852 486.4894 275.3989 484.9281 277.5305 482.0073 284.0981 480.4748 286.5292 478.5967 288.9028 476.4824 291.0113 474.1953 292.6244 472.2654 293.4079 467.0113 293.9149 464.9892 294.9634 461.4461 298.2242 459.8618 298.6735 457.9377 298.3509 456.0538 298.3509 454.1872 298.639 449.4171 300.2175 443.6272 304.3539 440.5393 305.8979 424.6417 309.0895 422.6801 309.0319 421.7814 308.4442 421.4443 307.4073 420.9806 302.8445 421.597 299.964 422.8961 297.2678 424.7195 294.6869 422.8328 293.7421 419.4769 292.7627 416.4639 293.3964 413.4279 294.5256 410.628 295.1823 407.9405 294.8482 402.6691 293.4079 400.0478 293.5462 399.5524 293.6269 398.5356 293.6269 398.0344 293.5462 389.75 290.0089 388.013 289.6978 384.156 290.078 380.0282 289.1332 371.3003 288.1078 364.9775 288.3382 360.9563 287.716 357.2232 286.679 353.5591 286.1145 346.041 287.9234 341.6367 288.3728 333.3033 288.0386 Z M 154.3834 172.8626 154.3193 173.0252 154.2829 173.0776 154.2829 172.8626 154.3834 172.8626 Z M 144.3374 179.3655 143.4828 180.0307 141.3224 181.1368 139.79 181.229 138.8682 180.6989 138.4901 180.3802 138.4901 179.3655 144.3374 179.3655 Z"/>
<path d="M 138.4901 180.3802 138.8682 180.6989 139.79 181.229 141.3224 181.1368 143.4828 180.0307 144.3374 179.3655 145.922 179.3655 145.922 178.4366 149.6379 178.4366 149.6379 179.3655 151.4959 179.3655 151.4959 180.2945 152.4249 180.2945 152.4249 179.3655 153.3539 179.3655 153.3539 178.4366 154.2829 178.4366 154.2829 177.5076 155.2119 177.5076 155.2119 174.7206 154.2829 174.7206 154.2829 173.0776 154.3193 173.0252 154.3834 172.8626 155.2119 172.8626 155.2119 171.0047 156.1409 171.0047 156.1409 169.1467 157.9988 169.1467 157.9988 168.2177 158.9278 168.2177 158.9278 166.4865 166.0978 163.3467 173.0139 161.5262 175.0447 159.9707 175.8973 158.6918 177.231 155.8689 178.1844 154.5438 179.4749 153.4838 182.3641 151.744 183.6229 150.6724 186.8202 146.0405 188.6148 144.0242 194.2232 141.0284 196.4297 139.2886 200.6208 135.0369 202.9079 133.3317 210.3138 129.2183 212.405 127.1558 216.3024 122.4088 218.6154 120.427 220.7902 119.39 223.0082 118.9176 227.6891 118.4336 227.8273 119.8854 227.6487 120.1965 226.4994 122.1668 226.2056 124.0103 225.6525 125.4045 223.5699 126.3263 223.809 126.6834 224.0999 127.5361 224.3304 127.9163 222.9103 128.2735 221.9856 129.3796 221.7725 130.7968 223.2819 133.4239 222.2391 133.6889 220.7268 133.4469 220.145 133.2395 217.1838 133.3202 216.6048 133.4699 217.6908 135.5094 218.5146 139.1503 219.2376 141.2128 220.4849 142.8835 223.7629 145.4529 225.0534 147.0545 225.8081 149.3474 225.6352 151.4329 224.7624 153.3455 223.4115 155.2006 223.0428 155.9034 222.7662 157.2515 222.2074 157.8968 221.6054 157.9774 220.433 157.24 219.8569 157.24 218.7191 157.9083 217.6447 158.7148 216.7373 159.6942 216.0921 160.8695 215.0407 165.3515 215.0292 172.0228 215.0172 176.9559 214.9946 186.2065 214.96 200.4017 214.9255 214.5969 214.8851 228.7921 214.8448 242.9758 214.8103 257.171 214.7728 271.3547 214.7411 285.5384 214.7181 294.5601 224.2814 286.9786 226.6722 286.4601 229.6737 289.0411 234.657 294.9058 237.4684 297.4522 242.5929 299.9409 248.1984 300.8512 253.9536 300.5747 259.5188 299.5031 264.0614 297.9476 291.1095 284.3631 295.7817 284.5935 297.9075 285.2042 300.0736 285.331 304.6018 285.0314 307.586 285.2388 309.5102 286.0338 313.7043 288.7069 317.4086 289.4443 331.2293 288.0041 333.3033 288.0386 333.7066 288.73 334.0983 289.4098 334.5074 290.0896 334.9049 290.7809 335.2995 291.4722 335.7028 292.1751 336.1061 292.8664 336.5007 293.5462 348.138 313.7214 359.758 333.908 371.3953 354.1062 383.0297 374.2929 394.6584 394.4796 406.2986 414.6663 417.9272 434.853 429.5588 455.0397 432.3193 459.8467 432.9002 460.8583 431.771 461.3422 431.12 462.3677 430.446 464.5915 429.5242 466.2852 428.2395 467.9329 426.6552 469.3386 423.3282 471.1014 421.7929 472.3689 420.73 473.982 420.5975 475.8024 421.6316 476.851 425.238 477.8303 426.3556 479.0632 423.7718 484.0523 422.9249 485.0432 413.7303 487.4974 411.4605 489.0068 409.7408 491.3227 408.3322 494.4682 405.8809 494.1341 404.5299 496.2196 403.3374 498.9157 399.8232 501.6004 399.1952 504.1122 399.2355 508.8939 400.6054 519.8627 400.8054 521.4644 399.9672 534.6688 400.261 539.1681 401.8482 547.9364 400.5491 569.7016 400.961 572.225 400.284 574.9903 399.2989 577.6634 398.3397 579.0921 395.9834 581.5924 395.1135 582.8714 394.8543 584.4038 395.0674 585.8095 395.0415 587.1115 394.0621 588.3328 392.7918 588.5633 389.3899 587.9641 387.9353 588.1024 386.374 590.6373 388.664 593.8519 394.6843 598.6221 395.9201 600.2812 395.9201 601.5602 395.3785 602.8737 394.9925 604.6711 395.125 606.1805 396.5682 610.4552 398.4808 613.2897 398.9043 617.0689 398.9216 621.1247 399.5985 624.708 401.0762 626.7474 407.0446 630.5843 408.2055 632.1859 408.8507 633.9142 409.5478 637.751 412.316 645.2173 412.8114 649.1233 410.6626 651.3817 403.1271 652.3265 399.3824 653.2598 396.5682 655.2185 395.9489 657.1427 395.7789 659.2973 395.897 663.6066 396.7727 665.5999 398.2994 667.8237 398.7862 670.0589 396.5682 672.0753 389.3237 676.0159 387.1575 677.5713 382.759 682.5143 381.9639 682.8945 380.0628 683.3785 379.3859 683.8854 379.0345 685.8096 379.2606 689.3795 379.0978 689.3795 379.0978 691.4452 378.7171 692.1665 378.1688 692.1665 378.1688 692.1777 376.2692 692.1237 373.7372 691.6052 371.5393 691.8242 370.1077 693.9903 369.7389 701.4563 357.7311 701.4563 357.7311 702.3853 356.8021 702.3853 356.8021 703.3143 354.9441 703.3143 354.9441 704.2433 353.0861 704.2433 353.0861 705.1723 350.2992 705.1723 350.2992 706.1013 348.4412 706.1013 348.4412 707.0303 347.5122 707.0303 347.5122 707.9593 343.7963 707.9593 343.7963 707.0303 341.0093 707.0303 341.0093 706.1013 340.0803 706.1013 340.0803 707.0303 338.2224 707.0303 338.2224 708.8882 337.2934 708.8882 337.2934 709.8172 333.5774 709.8172 333.5774 708.8882 332.6484 708.8882 332.6484 707.9593 331.7194 707.9593 331.7194 707.0303 330.7905 707.0303 330.7905 706.1013 329.8615 706.1013 329.8615 705.1723 323.3586 705.1723 323.3586 704.2433 319.6426 704.2433 319.6426 705.1723 318.7136 705.1723 318.7136 703.3143 315.9267 703.3143 315.9267 702.3853 314.9977 702.3853 314.9977 703.3143 313.1397 703.3143 313.1397 702.3853 312.2107 702.3853 312.2107 701.4563 311.2817 701.4563 311.2817 700.5274 310.3527 700.5274 310.3527 699.5984 308.4948 699.5984 308.4948 698.6694 306.6368 698.6694 306.6368 697.7404 303.8498 697.7404 303.8498 694.0244 302.9208 694.0244 302.9208 692.1665 301.9918 692.1665 301.9918 690.3085 301.0629 690.3085 301.0629 687.5215 300.1339 687.5215 300.1339 688.4505 299.2049 688.4505 299.2049 689.3795 298.2759 689.3795 298.2759 690.3085 294.56 690.3085 294.56 691.2375 293.631 691.2375 293.631 692.1665 292.702 692.1665 292.702 689.3795 291.773 689.3795 291.773 688.4505 290.844 688.4505 290.844 683.8056 292.702 683.8056 292.702 682.8766 290.844 682.8766 290.844 681.9476 289.915 681.9476 289.915 681.0186 288.986 681.0186 288.986 680.0896 287.1281 680.0896 287.1281 678.2317 286.1991 678.2317 286.1991 675.4447 285.2701 675.4447 285.2701 674.5157 284.3411 674.5157 284.3411 669.8708 283.4121 669.8708 283.4121 668.9418 282.4831 668.9418 282.4831 668.0128 281.5541 668.0128 281.5541 667.0838 280.6251 667.0838 280.6251 666.1548 279.6962 666.1548 279.6962 665.2258 278.7672 665.2258 278.7672 664.2969 277.8382 664.2969 277.8382 663.3679 276.9092 663.3679 276.9092 662.4389 275.9802 662.4389 275.9802 661.5099 275.0512 661.5099 275.0512 660.5809 274.1222 660.5809 274.1222 659.6519 273.1932 659.6519 273.1932 658.7229 272.2643 658.7229 272.2643 657.7939 271.3353 657.7939 271.3353 656.865 270.4063 656.865 270.4063 654.078 269.4773 654.078 269.4773 650.362 268.5483 650.362 268.5483 649.4331 267.6193 649.4331 267.6193 648.5041 263.9034 648.5041 263.9034 646.6461 262.0454 646.6461 262.0454 645.7171 259.2584 645.7171 259.2584 644.7881 256.4715 644.7881 256.4715 642.9302 255.5425 642.9302 255.5425 642.0012 254.6135 642.0012 254.6135 640.1432 253.6845 640.1432 253.6845 639.2142 252.7555 639.2142 252.7555 638.2852 251.8265 638.2852 251.8265 636.4272 250.8976 636.4272 250.8976 635.4983 249.9686 635.4983 249.9686 633.6403 249.0396 633.6403 249.0396 632.7113 248.1106 632.7113 248.1106 631.7823 247.1816 631.7823 247.1816 629.9243 246.2526 629.9243 246.2526 628.0664 245.3236 628.0664 245.3236 626.2084 244.3946 626.2084 244.3946 625.2794 241.6077 625.2794 241.6077 624.3504 233.2468 624.3504 233.2468 623.4214 231.3888 623.4214 231.3888 624.3504 230.4598 624.3504 230.4598 625.2794 229.5308 625.2794 229.5308 626.2084 228.6019 626.2084 228.6019 627.1374 226.7439 627.1374 226.7439 628.0664 225.8149 628.0664 225.8149 628.9953 224.8859 628.9953 224.8859 629.9243 223.0279 629.9243 223.0279 630.8533 222.099 630.8533 222.099 631.7823 220.241 631.7823 220.241 632.7113 217.454 632.7113 217.454 633.6403 216.525 633.6403 216.525 634.5693 215.596 634.5693 215.596 635.4983 214.6671 635.4983 214.6671 636.4272 213.7381 636.4272 213.7381 637.3562 212.8091 637.3562 212.8091 639.2142 211.8801 639.2142 211.8801 642.0012 210.9511 642.0012 210.9511 643.8591 210.0221 643.8591 210.0221 644.7881 209.0931 644.7881 209.0931 645.7171 208.1641 645.7171 208.1641 647.5751 207.2352 647.5751 207.2352 648.5041 206.3062 648.5041 206.3062 649.4331 205.3772 649.4331 205.3772 650.362 203.5192 650.362 203.5192 649.4331 202.5902 649.4331 202.5902 648.5041 201.6612 648.5041 201.6612 647.5751 200.7322 647.5751 200.7322 646.6461 199.8033 646.6461 199.8033 645.7171 198.8743 645.7171 198.8743 644.7881 193.3003 644.7881 191.4424 644.7881 191.4424 642.0012 194.2293 642.0012 194.2293 640.1432 195.1583 640.1432 195.1583 639.2142 196.0873 639.2142 196.0873 636.4272 192.3714 636.4272 192.3714 635.4983 191.4424 635.4983 191.4424 634.5693 190.5134 634.5693 190.5134 633.6403 189.5844 633.6403 189.5844 632.7113 188.6554 632.7113 188.6554 627.1374 189.5844 627.1374 189.5844 625.2794 190.5134 625.2794 190.5134 622.4924 191.4424 622.4924 191.4424 620.6345 192.3714 620.6345 192.3714 615.0605 191.4424 615.0605 191.4424 613.2026 189.5844 613.2026 189.5844 612.2736 187.7264 612.2736 187.7264 609.4866 186.7974 609.4866 186.7974 610.4156 185.8684 610.4156 185.8684 611.3446 183.0815 611.3446 183.0815 609.4866 182.1525 609.4866 182.1525 610.4156 181.2235 610.4156 181.2235 612.2736 178.4366 612.2736 178.4366 613.2026 176.5786 613.2026 176.5786 612.2736 174.7206 612.2736 174.7206 610.4156 173.7916 610.4156 173.7916 609.4866 172.8626 609.4866 172.8626 608.5576 171.9336 608.5576 171.9336 605.7707 171.0047 605.7707 171.0047 600.1967 170.0757 600.1967 170.0757 599.2678 166.3597 599.2678 166.3597 597.4098 165.4307 597.4098 165.4307 595.5518 164.5017 595.5518 164.5017 594.6228 163.5728 594.6228 163.5728 587.1909 162.6438 587.1909 162.6438 583.475 161.7148 583.475 161.7148 582.546 160.7858 582.546 160.7858 581.617 159.8568 581.617 159.8568 580.688 158.9278 580.688 158.9278 579.759 157.9988 579.759 157.9988 582.546 155.2119 582.546 155.2119 576.9865 155.2119 576.9841 155.2119 576.9769 155.2119 576.9721 155.2118 576.9721 155.2072 576.9721 155.199 576.9721 154.2829 576.9721 154.2829 577.901 153.3539 577.901 153.3539 578.83 150.5669 578.83 150.5669 576.0431 146.851 576.0431 146.851 569.5402 144.993 569.5402 144.993 570.4692 144.064 570.4692 144.064 574.1851 142.2061 574.1851 142.2061 573.2561 141.2771 573.2561 141.2771 572.3271 139.4191 572.3271 139.4191 571.3981 138.4901 571.3981 138.4901 570.4692 136.6321 570.4692 136.6321 569.5402 131.9872 569.5402 131.9872 567.6822 134.7742 567.6822 134.7742 566.7532 135.7031 566.7532 135.7031 565.8242 136.6321 565.8242 136.6321 563.0373 135.7031 563.0373 135.7031 563.9662 130.1292 563.9662 130.1292 563.0373 125.4843 563.0373 125.4843 562.1083 124.5553 562.1083 124.5553 561.1793 123.6263 561.1793 123.6263 560.2503 122.6973 560.2503 122.6973 559.3213 121.7683 559.3213 121.7683 557.4633 120.8393 557.4633 120.8393 555.6054 118.9814 555.6054 118.9814 554.6764 118.0524 554.6764 118.0524 551.8894 118.9814 551.8894 118.9814 549.1024 115.2654 549.1024 115.2654 547.2445 107.8335 547.2445 107.8335 542.5995 108.7625 542.5995 108.7625 539.8126 106.9045 539.8126 106.9045 538.8836 105.0466 538.8836 105.0466 537.9546 105.9756 537.9546 105.9756 537.0256 108.7625 537.0256 108.7625 535.1676 107.8335 535.1676 107.8335 534.2387 102.2596 534.2387 102.2596 533.3097 99.4726 533.3097 99.4726 532.3807 98.5437 532.3807 98.5437 531.4517 97.6147 531.4517 97.6147 530.5227 96.6857 530.5227 96.6857 527.7357 95.7567 527.7357 95.7567 525.8778 94.8277 525.8778 94.8277 524.9488 93.8987 524.9488 93.8987 524.0198 92.9697 524.0198 92.9697 521.2328 93.8987 521.2328 93.8987 509.156 92.9697 509.156 92.9697 508.227 91.1118 508.227 91.1118 507.298 88.3248 507.298 88.3248 506.369 87.3958 506.369 87.3958 498.9371 88.3248 498.9371 88.3248 497.0792 89.2538 497.0792 89.2538 494.2922 88.3248 494.2922 88.3248 489.6473 87.3958 489.6473 87.3958 488.7183 86.4668 488.7183 86.4668 485.0023 87.3958 485.0023 87.3958 483.1444 88.3248 483.1444 88.3248 477.5704 89.2538 477.5704 89.2538 478.4994 90.1828 478.4994 90.1828 479.4284 91.1118 479.4284 91.1118 481.2864 94.8277 481.2864 94.8277 482.2154 96.6857 482.2154 96.6857 484.0733 106.9045 484.0733 106.9045 480.3574 108.7625 480.3574 108.7625 476.6414 105.0466 476.6414 105.0466 475.7125 105.9756 475.7125 105.9756 472.9255 105.0466 472.9255 105.0466 471.9965 104.1176 471.9965 104.1176 471.0675 103.1886 471.0675 103.1886 468.2806 102.2596 468.2806 102.2596 467.3516 101.3306 467.3516 101.3306 466.4226 96.6857 466.4226 96.6857 464.5646 95.7567 464.5646 95.7567 463.6356 94.8277 463.6356 94.8277 462.7066 93.8987 462.7066 93.8987 461.7776 92.9697 461.7776 92.9697 460.8487 92.0407 460.8487 92.0407 459.9197 91.1118 459.9197 91.1118 458.9907 92.0407 458.9907 92.0407 458.0617 92.9697 458.0617 92.9697 455.2747 92.0407 455.2747 92.0407 454.3458 91.1118 454.3458 91.1118 453.4168 89.2538 453.4168 89.2538 454.3458 79.0349 454.3458 79.0349 453.4168 78.1059 453.4168 78.1059 452.4878 77.1769 452.4878 77.1769 453.4168 67.8871 453.4168 67.8871 454.3458 66.9581 454.3458 66.9581 455.2747 66.0291 455.2747 66.0291 457.1327 61.3842 457.1327 61.3842 454.3458 58.5972 454.3458 58.5972 452.4878 59.5262 452.4878 59.5262 451.5588 60.4552 451.5588 60.4552 450.6298 63.2421 450.6298 63.2421 449.7008 65.1001 449.7008 65.1001 448.7718 66.0291 448.7718 66.0291 446.9139 66.9581 446.9139 66.9581 445.9849 67.8871 445.9849 67.8871 445.0559 69.7451 445.0559 69.7451 444.1269 68.8161 444.1269 68.8161 443.1979 67.8871 443.1979 67.8871 442.2689 66.0291 442.2689 66.0291 441.3399 64.1711 441.3399 64.1711 440.4109 62.3132 440.4109 62.3132 439.482 60.4552 439.482 60.4552 438.553 58.5972 438.553 58.5972 437.624 54.8813 437.624 54.8813 432.979 53.9523 432.979 53.9523 432.0501 53.0233 432.0501 53.0233 431.1211 52.0943 431.1211 52.0943 430.1921 50.2363 430.1921 50.2363 419.9732 49.3073 419.9732 49.3073 417.1863 48.3783 417.1863 48.3783 416.2573 46.5204 416.2573 46.5204 415.3283 45.5914 415.3283 45.5914 414.3993 42.8044 414.3993 42.8044 413.4703 41.8754 413.4703 41.8754 412.5413 39.0885 412.5413 39.0885 413.4703 30.7276 413.4703 30.7276 414.3993 28.8696 414.3993 28.8696 413.4703 27.9406 413.4703 27.9406 393.0326 26.0827 393.0326 26.0827 390.2456 25.1537 390.2456 25.1537 389.3166 24.2247 389.3166 24.2247 388.3877 23.2957 388.3877 23.2957 385.6007 22.3667 385.6007 22.3667 383.7427 21.4377 383.7427 21.4377 382.8137 20.5087 382.8137 20.5087 380.9558 21.4377 380.9558 21.4377 375.3818 20.5087 375.3818 20.5087 368.8789 21.4377 368.8789 21.4377 367.021 22.3667 367.021 22.3667 365.163 23.2957 365.163 23.2957 363.305 24.2247 363.305 24.2247 362.376 27.0116 362.376 27.0116 358.6601 26.0827 358.6601 26.0827 356.8021 27.0116 356.8021 27.0116 355.8731 27.9406 355.8731 27.9406 354.9441 28.8696 354.9441 28.8696 354.0151 29.7986 354.0151 29.7986 348.4412 30.7276 348.4412 30.7276 347.5122 31.6566 347.5122 31.6566 346.5832 32.5856 346.5832 32.5856 345.6542 34.4435 345.6542 34.4435 343.7963 35.3725 343.7963 35.3725 342.8673 34.4435 342.8673 34.4435 337.2934 36.3015 337.2934 36.3015 336.3644 37.2305 336.3644 37.2305 335.4354 41.8754 335.4354 41.8754 334.5064 40.9464 334.5064 40.9464 333.5774 40.0175 333.5774 40.0175 328.0035 40.9464 328.0035 40.9464 325.2165 41.8754 325.2165 41.8754 323.3586 42.8044 323.3586 42.8044 322.4296 41.8754 322.4296 41.8754 314.9977 40.9464 314.9977 40.9464 313.1397 43.7334 313.1397 43.7334 312.2107 44.6624 312.2107 44.6624 307.5658 46.5204 307.5658 46.5204 304.7788 44.6624 304.7788 44.6624 303.8498 43.7334 303.8498 40.9464 303.8498 40.9464 302.9208 39.0885 302.9208 39.0885 301.9919 37.2305 301.9919 37.2305 300.1339 36.3015 300.1339 36.3015 296.4179 35.3725 296.4179 35.3725 295.4889 36.3015 295.4889 36.3015 294.56 37.2305 294.56 37.2305 292.702 38.1595 292.702 38.1595 291.773 33.5146 291.773 33.5146 292.702 32.5856 292.702 32.5856 293.631 31.6566 293.631 31.6566 292.702 29.7986 292.702 29.7986 293.631 28.8696 293.631 28.8696 292.702 24.2247 292.702 24.2247 291.773 23.2957 291.773 23.2957 280.6251 24.2247 280.6251 24.2247 274.1222 23.2957 274.1222 23.2957 272.2643 22.3667 272.2643 22.3667 270.4063 21.4377 270.4063 21.4377 269.4773 20.5087 269.4773 20.5087 274.1222 19.5797 274.1222 19.5797 275.0512 18.6508 275.0512 18.6508 275.9802 15.8638 275.9802 15.8638 268.5483 14.0058 268.5483 14.0058 269.4773 13.0768 269.4773 13.0768 270.4063 12.1478 270.4063 12.1478 271.3353 8.4319 271.3353 8.4319 270.4063 7.5029 270.4063 7.5029 269.4773 6.5739 269.4773 6.5739 268.5483 5.6449 268.5483 5.6449 267.6193 4.7159 267.6193 4.7159 266.6903 3.787 266.6903 3.787 265.7614 2.858 265.7614 2.858 264.8324 1.929 264.8324 1.929 263.9034 1 263.9034 1 261.1164 1.929 261.1164 1.929 259.2584 2.858 259.2584 2.858 260.1874 3.787 260.1874 3.787 261.1164 9.3609 261.1164 9.3609 260.1874 10.2899 260.1874 10.2899 257.4005 9.3609 257.4005 9.3609 256.4715 8.4319 256.4715 8.4319 255.5425 7.5029 255.5425 7.5029 254.6135 6.5739 254.6135 6.5739 253.6845 5.6449 253.6845 5.6449 249.0396 7.5029 249.0396 7.5029 246.2526 6.5739 246.2526 6.5739 244.3946 5.6449 244.3946 5.6449 241.6077 4.7159 241.6077 4.7159 237.8917 3.787 237.8917 3.787 236.9627 2.858 236.9627 2.858 233.2468 4.7159 233.2468 4.7159 226.7439 5.6449 226.7439 5.6449 224.8859 5.6449 223.9569 6.5739 223.9569 6.5739 223.0279 7.5029 223.0279 7.5029 222.099 8.4319 222.099 8.4319 221.17 10.2899 221.17 10.2899 222.099 9.3609 222.099 9.3609 223.0279 8.4319 223.0279 8.4319 223.9569 7.5029 223.9569 7.5029 232.3178 8.4319 232.3178 8.4319 233.2468 9.3609 233.2468 9.3609 234.1758 10.2899 234.1758 10.2899 235.1048 11.2189 235.1048 11.2189 236.0338 12.1478 236.0338 12.1478 236.9627 13.0768 236.9627 13.0768 237.8917 14.9348 237.8917 14.9348 238.8207 16.7928 238.8207 16.7928 239.7497 25.1537 239.7497 25.1537 234.1758 26.0827 234.1758 26.0827 228.6019 30.7276 228.6019 30.7276 227.6729 31.6566 227.6729 31.6566 226.7439 32.5856 226.7439 32.5856 225.8149 34.4435 225.8149 34.4435 223.9569 35.3725 223.9569 35.3725 224.8859 36.3015 224.8859 36.3015 225.8149 37.2305 225.8149 37.2305 226.7439 38.1595 226.7439 38.1595 227.6729 41.8754 227.6729 41.8754 225.8149 43.7334 225.8149 43.7334 224.8859 44.6624 224.8859 44.6624 223.9569 45.5914 223.9569 45.5914 223.0279 47.4494 223.0279 47.4494 222.099 54.8813 222.099 54.8813 223.0279 57.6682 223.0279 57.6682 223.9569 60.4552 223.9569 60.4552 224.8859 63.2421 224.8859 63.2421 223.9569 65.1001 223.9569 65.1001 223.0279 66.9581 223.0279 66.9581 222.099 69.7451 222.099 69.7451 215.596 68.8161 215.596 68.8161 212.8091 69.7451 212.8091 69.7451 211.8801 68.8161 211.8801 68.8161 210.9511 67.8871 210.9511 67.8871 210.0221 66.9581 210.0221 66.9581 209.0931 66.0291 209.0931 66.0291 208.1641 65.1001 208.1641 65.1001 198.8743 66.0291 198.8743 66.0291 197.9453 71.603 197.9453 71.603 198.8743 72.532 198.8743 72.532 199.8033 73.461 199.8033 73.461 200.7322 74.39 200.7322 74.39 201.6612 77.1769 201.6612 77.1769 200.7322 78.1059 200.7322 78.1059 198.8743 83.6799 198.8743 83.6799 197.9453 87.3958 197.9453 87.3958 197.0163 88.3248 197.0163 88.3248 196.0873 92.0407 196.0873 92.0407 197.0163 92.9697 197.0163 92.9697 197.9453 94.8277 197.9453 94.8277 202.5902 98.5437 202.5902 98.5437 201.6612 99.4726 201.6612 99.4726 200.7322 102.2596 200.7322 102.2596 197.9453 104.1176 197.9453 104.1176 197.0163 106.9045 197.0163 106.9045 196.0873 107.8335 196.0873 107.8335 195.1583 109.6915 195.1583 109.6915 194.2293 111.5495 194.2293 111.5495 193.3003 112.4785 193.3003 112.4785 189.5844 113.4074 189.5844 113.4074 188.6554 114.3364 188.6554 114.3364 187.7264 115.2654 187.7264 115.2654 186.7974 118.9814 186.7974 118.9814 187.7264 119.9104 187.7264 119.9104 188.6554 130.1292 188.6554 130.1292 186.7974 131.0582 186.7974 131.0582 185.8685 131.9872 185.8685 131.9872 184.9395 132.9162 184.9395 132.9162 183.0815 134.7742 183.0815 134.7742 182.1525 138.4901 182.1525 138.4901 180.3802 Z"/>
</svg>
